# xmcd
#
# Track frame offsets:
#	150
#	23173
#	38563
#	50627
#	63020
#	81195
#	104218
#	119613
#	131677
#	144047
#	173622
#
# Disc length: 2343 seconds
#
# Revision: 1
# Processed by: cddbd v1.5.2PL0 Copyright (c) Steve Scherf et al.
# Submitted via: audiograbber 1.83.01
#
DISCID=9009250b
DTITLE=alan jackson - pro sound series
DYEAR=2001
DGENRE=karaoke
TTITLE0=where were you
TTITLE1=it must be love
TTITLE2=little bitty
TTITLE3=www.memory
TTITLE4=where i come from
TTITLE5=where were you
TTITLE6=it must be love
TTITLE7=little bitty
TTITLE8=www.memory
TTITLE9=where i come from
TTITLE10=Data Track
EXTD=
EXTT0=
EXTT1=
EXTT2=
EXTT3=
EXTT4=
EXTT5=
EXTT6=
EXTT7=
EXTT8=
EXTT9=
EXTT10=
PLAYORDER=
